<?xml version="1.0" encoding="UTF-8"?>
<svg xmlns="http://www.w3.org/2000/svg" viewBox="0 0 404 420.2" fill="none">
  <path d="M382.9 14.4L217.9 138.5L242.4 60.9L382.9 14.4Z" fill="#E17726" stroke="#E17726" stroke-width="5.94955" stroke-linecap="round" stroke-linejoin="round"/>
  <path d="M21 14.4L185.3 139.9L161.5 60.9L21 14.4Z" fill="#E27625" stroke="#E27625" stroke-width="5.94955" stroke-linecap="round" stroke-linejoin="round"/>
  <path d="M325.2 313.9L283.5 386.6L371.5 414.2L397.1 315.3L325.2 313.9Z" fill="#E27625" stroke="#E27625" stroke-width="5.94955" stroke-linecap="round" stroke-linejoin="round"/>
  <path d="M6.8 315.3L32.3 414.2L120.1 386.6L78.6 313.9L6.8 315.3Z" fill="#E27625" stroke="#E27625" stroke-width="5.94955" stroke-linecap="round" stroke-linejoin="round"/>
  <path d="M115.3 193.4L94.5 236.9L181.6 241.7L178.7 147.8L115.3 193.4Z" fill="#E27625" stroke="#E27625" stroke-width="5.94955" stroke-linecap="round" stroke-linejoin="round"/>
  <path d="M288.6 193.4L224.4 147L222.3 241.7L309.2 236.9L288.6 193.4Z" fill="#E27625" stroke="#E27625" stroke-width="5.94955" stroke-linecap="round" stroke-linejoin="round"/>
  <path d="M120.1 386.6L175.8 357L127.5 316.1L120.1 386.6Z" fill="#E27625" stroke="#E27625" stroke-width="5.94955" stroke-linecap="round" stroke-linejoin="round"/>
  <path d="M228.1 357L283.5 386.6L276.3 316.1L228.1 357Z" fill="#E27625" stroke="#E27625" stroke-width="5.94955" stroke-linecap="round" stroke-linejoin="round"/>
  <path d="M283.5 386.6L228.1 357L232.3 396.6L231.8 413.7L283.5 386.6Z" fill="#D5BFB2" stroke="#D5BFB2" stroke-width="5.94955" stroke-linecap="round" stroke-linejoin="round"/>
  <path d="M120.1 386.6L172.1 413.7L171.8 396.6L175.8 357L120.1 386.6Z" fill="#D5BFB2" stroke="#D5BFB2" stroke-width="5.94955" stroke-linecap="round" stroke-linejoin="round"/>
  <path d="M174.3 293.5L127.9 278.5L160.1 261.9L174.3 293.5Z" fill="#233447" stroke="#233447" stroke-width="5.94955" stroke-linecap="round" stroke-linejoin="round"/>
  <path d="M229.6 293.5L243.8 261.9L276.2 278.5L229.6 293.5Z" fill="#233447" stroke="#233447" stroke-width="5.94955" stroke-linecap="round" stroke-linejoin="round"/>
  <path d="M120.1 386.6L127.8 313.9L78.6 315.3L120.1 386.6Z" fill="#CC6228" stroke="#CC6228" stroke-width="5.94955" stroke-linecap="round" stroke-linejoin="round"/>
  <path d="M276.1 313.9L283.5 386.6L325.2 315.3L276.1 313.9Z" fill="#CC6228" stroke="#CC6228" stroke-width="5.94955" stroke-linecap="round" stroke-linejoin="round"/>
  <path d="M309.2 236.9L222.3 241.7L229.6 293.5L243.8 261.9L276.2 278.5L309.2 236.9Z" fill="#CC6228" stroke="#CC6228" stroke-width="5.94955" stroke-linecap="round" stroke-linejoin="round"/>
  <path d="M127.9 278.5L160.1 261.9L174.3 293.5L181.6 241.7L94.5 236.9L127.9 278.5Z" fill="#CC6228" stroke="#CC6228" stroke-width="5.94955" stroke-linecap="round" stroke-linejoin="round"/>
  <path d="M94.5 236.9L127.5 316.1L127.9 278.5L94.5 236.9Z" fill="#E27525" stroke="#E27525" stroke-width="5.94955" stroke-linecap="round" stroke-linejoin="round"/>
  <path d="M276.2 278.5L276.3 316.1L309.2 236.9L276.2 278.5Z" fill="#E27525" stroke="#E27525" stroke-width="5.94955" stroke-linecap="round" stroke-linejoin="round"/>
  <path d="M181.6 241.7L174.3 293.5L183.7 355.3L186.1 275.1L181.6 241.7Z" fill="#E27525" stroke="#E27525" stroke-width="5.94955" stroke-linecap="round" stroke-linejoin="round"/>
  <path d="M222.3 241.7L217.9 275L220 355.3L229.6 293.5L222.3 241.7Z" fill="#E27525" stroke="#E27525" stroke-width="5.94955" stroke-linecap="round" stroke-linejoin="round"/>
  <path d="M229.6 293.5L220 355.3L228.1 357L276.3 316.1L276.2 278.5L229.6 293.5Z" fill="#F5841F" stroke="#F5841F" stroke-width="5.94955" stroke-linecap="round" stroke-linejoin="round"/>
  <path d="M127.9 278.5L127.5 316.1L175.8 357L183.7 355.3L174.3 293.5L127.9 278.5Z" fill="#F5841F" stroke="#F5841F" stroke-width="5.94955" stroke-linecap="round" stroke-linejoin="round"/>
  <path d="M231.8 413.7L232.3 396.6L228.5 393.3H175.4L171.8 396.6L172.1 413.7L120.1 386.6L137.4 400.9L175 427.2H228.9L266.6 400.9L283.5 386.6L231.8 413.7Z" fill="#C0AC9D" stroke="#C0AC9D" stroke-width="5.94955" stroke-linecap="round" stroke-linejoin="round"/>
  <path d="M228.1 357L220 355.3H183.7L175.8 357L171.8 396.6L175.4 393.3H228.5L232.3 396.6L228.1 357Z" fill="#161616" stroke="#161616" stroke-width="5.94955" stroke-linecap="round" stroke-linejoin="round"/>
  <path d="M377.3 172.5L389.9 88.1L382.9 14.4L228.1 158.4L288.6 193.4L369.9 221.2L387.5 196.6L379.8 191.3L391.9 180.5L382.7 173.8L394.8 164.8L377.3 172.5Z" fill="#763E1A" stroke="#763E1A" stroke-width="5.94955" stroke-linecap="round" stroke-linejoin="round"/>
  <path d="M14 88.1L26.7 172.5L9 164.8L21.2 173.8L12.1 180.5L24.2 191.3L16.5 196.6L33.9 221.2L115.3 193.4L175.8 158.4L21 14.4L14 88.1Z" fill="#763E1A" stroke="#763E1A" stroke-width="5.94955" stroke-linecap="round" stroke-linejoin="round"/>
  <path d="M369.9 221.2L288.6 193.4L309.2 236.9L276.3 316.1L325.2 315.3H397.1L369.9 221.2Z" fill="#F5841F" stroke="#F5841F" stroke-width="5.94955" stroke-linecap="round" stroke-linejoin="round"/>
  <path d="M115.3 193.4L33.9 221.2L6.8 315.3H78.6L127.5 316.1L94.5 236.9L115.3 193.4Z" fill="#F5841F" stroke="#F5841F" stroke-width="5.94955" stroke-linecap="round" stroke-linejoin="round"/>
  <path d="M222.3 241.7L228.1 158.4L242.4 60.9H161.5L175.8 158.4L181.6 241.7L183.6 275.1L183.7 355.3H220L220.1 275.1L222.3 241.7Z" fill="#F5841F" stroke="#F5841F" stroke-width="5.94955" stroke-linecap="round" stroke-linejoin="round"/>
</svg>
